<?xml version="1.0" encoding="utf-8"?>
<!-- Generator: Adobe Illustrator 24.1.2, SVG Export Plug-In . SVG Version: 6.00 Build 0)  -->
<svg version="1.1" id="Layer_1" xmlns="http://www.w3.org/2000/svg" xmlns:xlink="http://www.w3.org/1999/xlink" x="0px" y="0px"
	 viewBox="0 0 2000 1500" style="enable-background:new 0 0 2000 1500;" xml:space="preserve">
<style type="text/css">
	.st0{fill:#051726;stroke:#000000;stroke-miterlimit:10;}
	.st1{fill:#FFFFFF;stroke:#000000;stroke-miterlimit:10;}
</style>
<g transform="translate(0.000000,1500.000000) scale(0.100000,-0.100000)">
	<path d="M0,7500V0h10000h10000v7500v7500H10000H0V7500z M12420,11705v-695h-345h-345v103c0,134-14,205-57,296
		c-43,89-131,182-219,228c-115,61-132,63-736,63h-548V9270V6840h260h260l-2-347l-3-348H9645H8605l-3,348l-2,347h265h265v2430v2431
		l-577-3c-572-3-579-4-638-26c-132-50-234-142-296-267c-44-89-58-167-59-307v-88h-345h-345v695v695h2775h2775V11705z M15925,5430
		c89-23,193-59,200-70c4-7-77-215-87-225c-2-2-50,12-108,32c-137,47-248,56-312,25c-54-27-78-66-78-128c0-43,4-51,43-88
		c25-24,92-65,162-100c228-111,317-182,368-293c18-40,22-66,21-148c0-125-24-191-92-263c-97-101-216-142-418-142
		c-130,0-218,14-324,52l-65,23l-3,138c-1,75-1,137,1,137s52-18,112-41c220-83,365-91,457-27c33,23,53,83,44,132
		c-11,56-64,98-235,186c-233,119-310,190-348,319c-21,73-14,209,15,273c39,88,128,166,232,203C15619,5464,15785,5466,15925,5430z
		 M4888,5313l3-123h-191h-190v-575v-576l-147,3l-148,3l-3,573l-2,572h-185h-185v125v125l523-2l522-3L4888,5313z M5735,5416
		c148-34,240-101,294-215c23-50,26-68,26-171c0-106-2-119-28-173c-33-67-107-144-172-178c-29-15-43-29-40-38c3-7,93-143,200-302
		s195-291,195-294s-73-4-162-3l-162,3l-166,265l-166,265l-77,3l-77,3l-2-268l-3-268l-147-3l-148-3v702v701l283-5
		C5588,5433,5684,5428,5735,5416z M6680,4740v-700h-145h-145v700v700h145h145V4740z M7695,5421c168-33,256-85,301-178
		c26-52,29-68,29-158c0-110-20-172-73-228c-29-31-92-67-117-67c-33,0-12-17,41-34c139-44,216-202,184-376c-30-165-139-270-327-317
		c-56-14-123-17-383-17l-315-1l-3,685c-1,377,0,691,3,699c4,11,57,12,303,8C7502,5435,7662,5427,7695,5421z M8632,4953
		c3-368,7-498,17-528c18-55,86-118,147-136c59-17,175-17,228,1c52,17,105,66,130,120c20,43,21,63,24,538l3,492h149h150v-470
		c0-519-5-570-61-682c-59-117-185-209-335-244c-97-23-335-15-414,14c-170,61-261,153-316,322c-16,49-18,108-22,543
		c-2,269-1,495,2,503c4,11,34,14,150,14h145L8632,4953z M10730,5315v-125h-185h-185l-2-572l-3-573l-147-3l-148-3v576v575h-190h-190
		v125v125h525h525V5315z M11868,4753c133-379,242-694,242-700c0-10-38-13-154-13h-155l-36,118c-20,64-44,141-53,170l-16,52h-251
		h-251l-21-67c-12-38-36-114-53-170l-31-103h-154c-126,0-155,3-155,14c0,8,100,297,221,642c122,346,230,655,241,687l20,57h182h181
		L11868,4753z M12925,5416c229-52,333-185,323-414c-4-81-9-106-32-151c-34-66-105-138-169-171c-26-14-45-30-43-37
		c3-6,93-142,200-301c108-160,196-293,196-296c0-4-73-5-162-4l-162,3l-165,267l-166,268h-77h-78l-2-267l-3-268h-145h-145l-3,699
		l-2,698l282-5C12778,5433,12874,5428,12925,5416z M13875,4740v-695l-147-3l-148-3v701v701l148-3l147-3V4740z M15028,5318l-3-123
		l-252-3l-253-2v-150v-150h235h235v-120v-120h-235h-235v-180v-180h255h256l-3-122l-3-123l-397-3l-398-2v700v700h400h401L15028,5318z
		 M5217,3434c29-8,55-19,58-24c4-7-15-58-29-77c-1-1-26,7-56,17c-32,11-83,19-121,20c-124,0-200-44-251-148c-28-55-33-78-36-157
		c-9-203,76-327,239-350c42-6,147,5,207,21c20,6,22,3,22-34c0-40-2-42-42-54c-66-19-243-17-305,5c-150,52-231,206-220,417
		c8,165,69,276,184,338C4966,3460,5091,3470,5217,3434z M11719,3433c31-8,60-18,64-22c7-7-12-59-27-78c-1-1-30,7-65,17
		c-77,24-199,26-263,4c-62-20-123-75-155-138c-36-69-45-225-17-313c23-74,100-155,165-174c49-15,194-18,252-6l37,8v124v125h-95h-95
		v40v40h140h140v-195v-194l-37-11c-132-37-308-38-401-2c-108,42-184,136-212,263c-18,81-8,230,19,301c44,114,161,205,291,227
		C11526,3460,11643,3453,11719,3433z M13084,3439c21-6,49-15,63-20l24-9l-21-39l-20-40l-57,20c-128,44-262,16-336-71
		c-53-62-72-126-72-240c1-116,21-181,75-243c68-77,174-102,310-73c41,9,78,16,83,16c4,0,7-17,7-39c0-37-1-39-47-52
		c-28-8-94-14-158-14c-97,0-116,3-165,26c-119,55-181,147-202,296c-35,254,88,455,301,493C12920,3460,13025,3454,13084,3439z
		 M13779,3435c133-46,212-168,227-345c17-200-60-361-205-429c-49-23-68-26-161-26c-92,0-112,3-160,26c-31,14-72,40-91,57
		c-97,85-142,278-105,453c33,154,123,248,269,279C13609,3462,13725,3454,13779,3435z M15401,3435c28-8,55-18,60-22c4-4,1-24-7-44
		l-15-37l-60,19c-34,11-90,19-126,19c-111,0-163-41-163-129c0-70,37-99,215-172c167-68,224-185,154-320c-25-50-93-94-168-110
		c-65-13-207-7-266,13c-38,12-40,15-43,57c-3,41-2,43,20,38c179-41,215-45,283-26c21,6,54,26,72,44c29,29,33,39,33,85
		c0,47-4,56-34,85c-20,19-73,48-128,69c-163,65-221,119-234,220c-20,143,109,244,293,229C15321,3451,15372,3442,15401,3435z
		 M7657,3425c94-28,135-80,136-174c0-88-50-160-124-176l-32-7l52-18c91-31,131-86,131-183c0-65-31-129-80-168c-56-45-133-59-312-59
		h-158v407v406l168-6C7539,3443,7627,3434,7657,3425z M8356,3425c91-27,142-99,143-203c2-90-42-162-121-203l-38-19l110-181l110-180
		l-56,3l-57,3l-97,165l-97,165l-81,3l-82,3v-171v-170h-50h-50v398c0,219,3,402,8,407C8010,3458,8300,3442,8356,3425z M9099,3127
		c69-177,140-359,157-405l33-83l-50,3l-51,3l-48,125l-48,125l-160,3l-160,2l-49-127l-50-128l-47-3c-25-2-46-1-46,2
		c0,5,260,676,307,794c3,7,23,12,47,12h41L9099,3127z M10436,3442c6-4,102-149,214-322c111-173,208-320,214-327c8-9,11,76,11,320
		v332l43,3l42,3v-405v-406h-54h-54l-217,335c-119,184-218,335-219,335c0,0,1-151,2-335l4-335h-46h-46v398c0,219,3,402,7,405
		C10346,3452,10422,3452,10436,3442z M14509,3113l216-332l3,335l2,335l43-3l42-3v-400v-400l-55-2l-55-3l-215,334l-215,334l-3-334
		l-2-334h-40h-40v406v405l52-3l52-3L14509,3113z M5878,3403l-3-38l-177-3l-178-2v-130v-130h170h170v-40v-40h-170h-171l3-147l3-148
		l178-3l177-2v-40v-40h-225h-225v400v400h226h225L5878,3403z M6150,3085v-355h175h175v-45v-45h-225h-225v400v400h50h50V3085z
		 M7090,3400v-40h-180h-181l3-127l3-128l168-3l167-2v-40v-40h-170h-171l3-147l3-148l178-3l177-2v-40v-40h-225h-225v400v400h225h225
		V3400z M9900,3400v-40h-125h-125l-2-357l-3-358l-47-3l-48-3v360v361h-125h-125v40v40h300h300V3400z M10110,3040v-400h-45h-45v400
		v400h45h45V3040z M12380,3040v-400h-45h-45v400v400h45h45V3040z"/>
	<path d="M5400,5005v-188l108,5c90,4,118,9,157,29c71,35,89,65,93,152c6,135-52,178-245,185l-113,4V5005z"/>
	<path d="M7330,5039v-151l148,4c175,4,202,14,234,85c24,54,20,112-10,152c-33,45-92,60-239,60l-133,1V5039z"/>
	<path d="M7330,4470v-180h128c191,0,249,23,287,112c42,102-5,202-109,233c-32,10-94,15-178,15h-128V4470z"/>
	<path d="M11416,5119c-16-57-55-189-88-292c-32-104-58-193-58-198s75-9,175-9c141,0,175,3,175,14c0,7-33,121-74,252
		c-40,131-80,261-87,288l-14,49L11416,5119z"/>
	<path d="M12590,5006v-186h80c196,0,283,58,283,190c0,73-24,117-83,150c-39,21-61,25-162,28l-118,4V5006z"/>
	<path d="M13512,3344c-56-28-80-56-114-131c-19-40-22-67-23-163c0-141,18-202,79-265c99-103,295-97,385,12c50,61,66,122,66,253
		c0,108-2,119-31,181c-49,103-110,139-239,139C13579,3370,13553,3365,13512,3344z"/>
	<path d="M7360,3229v-131l123,4c143,4,180,18,204,76c18,44,12,105-14,134c-33,38-76,48-198,48h-115V3229z"/>
	<path d="M7360,2869v-151l128,4c105,3,134,7,162,24c49,28,72,76,67,142c-7,101-67,132-251,132h-106V2869z"/>
	<path d="M8090,3210v-150h98c166,1,218,41,210,166c-7,106-53,134-217,134h-91V3210z"/>
	<path d="M8927,3330c-3-8-13-40-23-70c-9-30-36-106-59-167l-43-113h129c71,0,129,2,129,4s-24,70-54,152c-29,82-58,163-64,179
		C8936,3336,8931,3340,8927,3330z"/>
</g>
<rect y="0" class="st0" width="2000" height="1500"/>
<polyline class="st1" points="684.3,261 1244.7,261 1244.7,296.1 684.3,296.1 "/>
<polyline class="st1" points="686.5,264.2 1242,264.2 1243.3,302.2 687,302.2 "/>
<polyline class="st1" points="685,353.2 1240.5,353.2 1241.8,391.2 685.5,391.2 "/>
<polyline class="st1" points="685,309.2 1240.5,309.2 1241.8,347.2 685.5,347.2 "/>
<polygon class="st1" points="889,410.3 934.7,410.3 936,818 892,818 "/>
<polygon class="st1" points="941.2,408.4 986.9,408.4 988.2,816 944.2,816 "/>
<polygon class="st1" points="993.2,409.4 1038.9,409.4 1040.2,817 996.2,817 "/>
<path class="st1" d="M733,1035"/>
</svg>
